<svg width="179" height="91" viewBox="0 0 179 91" fill="none" xmlns="http://www.w3.org/2000/svg">
<path d="M39.2351 29C34.6942 29 31 32.6422 31 37.1192C31 41.5962 34.6942 45.2383 39.2351 45.2383C41.7229 45.2383 44.0504 44.1467 45.623 42.2433C46.2041 41.5402 46.6473 40.757 46.9601 39.9152C48.2209 40.0027 49.144 40.3945 49.7069 41.0828C50.7363 42.3405 50.3275 44.2636 50.3233 44.2802C50.3108 44.3362 50.3037 44.3946 50.3037 44.452V61.2142C50.3037 61.6481 50.6606 62 51.1006 62C51.5412 62 51.8976 61.6481 51.8976 61.2142V44.5296C51.991 44.0363 52.3184 41.7855 50.9569 40.1081C50.1537 39.1197 48.9459 38.5446 47.3676 38.3797C47.433 37.9636 47.4687 37.5431 47.4687 37.1193C47.4702 32.6422 43.7766 29 39.2351 29ZM45.6288 38.8976C45.3824 39.7599 44.9647 40.552 44.3878 41.2507C43.1192 42.7864 41.2414 43.6665 39.2357 43.6665C35.5737 43.6665 32.5945 40.7295 32.5945 37.1188C32.5945 33.508 35.5737 30.5711 39.2357 30.5711C42.8987 30.5711 45.8769 33.508 45.8769 37.1188C45.8763 37.7231 45.7938 38.3219 45.6288 38.8976Z" fill="#D68F0D"/>
<path d="M29.0755 60.1586C29.5925 59.9379 30.0733 59.6299 30.5003 59.2485C30.9272 59.6299 31.4091 59.9379 31.9256 60.1586C34.4678 62.0448 36.9418 63 39.2807 63C45.7483 63 48.8095 55.9048 48.9368 55.6034C49.0616 55.3055 48.9987 54.9623 48.7744 54.7291C48.5513 54.4968 48.2119 54.4206 47.9107 54.5347C46.2365 55.1719 44.7184 55.4931 43.3973 55.4931C40.674 55.4931 39.3875 54.1191 38.8501 53.2612C38.7516 53.0283 38.6353 52.7967 38.4986 52.5676C37.5331 50.9604 35.8444 50 33.9811 50C32.6846 50 31.4558 50.4718 30.5003 51.3172C29.5448 50.4719 28.317 50 27.0195 50C25.1562 50 23.4674 50.9605 22.5015 52.5676C22.3653 52.7967 22.2474 53.0283 22.1506 53.2612C21.6131 54.1207 20.3261 55.4931 17.6027 55.4931C16.2822 55.4931 14.7636 55.1704 13.0895 54.5347C12.7893 54.4212 12.4488 54.4968 12.2252 54.7291C12.002 54.9624 11.9381 55.3055 12.0633 55.6034C12.1906 55.9059 15.2533 63 21.7195 63C24.0599 63 26.5343 62.0448 29.0755 60.1586Z" fill="#EDEDED"/>
<circle cx="33.5" cy="45.5" r="32.5" stroke="#D9D9D9" stroke-width="2"/>
<path d="M73.56 39.4V37.44C73.56 37.04 73.76 36.84 74.16 36.84H76.28V16.08H74.2C73.8 16.08 73.6 15.88 73.6 15.48V13.44C73.6 13.0133 73.8 12.8 74.2 12.8C77.4 12.6667 80.44 12.6 83.32 12.6C86.2 12.6 88.4933 13.16 90.2 14.28C91.9333 15.3733 92.8 16.9467 92.8 19C92.8 20.4933 92.3333 21.8 91.4 22.92C90.4933 24.0133 89.4133 24.8133 88.16 25.32C90.2133 25.64 91.7733 26.4 92.84 27.6C93.9333 28.8 94.48 30.2667 94.48 32C94.48 34.2667 93.64 36.1067 91.96 37.52C90.28 38.9067 88.0533 39.6933 85.28 39.88C84.1333 39.96 82.2933 40 79.76 40H74.16C73.76 40 73.56 39.8 73.56 39.4ZM80.76 27.4V36.92H82.56C84.9067 36.92 86.72 36.5467 88 35.8C89.3067 35.0533 89.96 33.76 89.96 31.92C89.96 28.9067 87.8533 27.4 83.64 27.4H80.76ZM80.76 15.84V24.08H82.28C86.2267 24.08 88.2 22.7067 88.2 19.96C88.2 18.4133 87.72 17.3467 86.76 16.76C85.8 16.1467 84.4267 15.84 82.64 15.84H80.76ZM103.717 36.84H106.237C106.637 36.84 106.837 37.04 106.837 37.44V39.4C106.837 39.8 106.637 40 106.237 40H96.7166C96.3166 40 96.1166 39.8 96.1166 39.4V37.44C96.1166 37.04 96.3166 36.84 96.7166 36.84C96.7166 36.84 97.5566 36.84 99.2366 36.84V23.48H97.0766C96.6766 23.48 96.4766 23.28 96.4766 22.88V20.8C96.4766 20.4 96.6766 20.2 97.0766 20.2H103.117C103.517 20.2 103.717 20.4 103.717 20.8V36.84ZM98.8766 16.64C98.3699 16.1067 98.1166 15.4267 98.1166 14.6C98.1166 13.7733 98.3699 13.0933 98.8766 12.56C99.4099 12 100.103 11.72 100.957 11.72C101.837 11.72 102.53 12 103.037 12.56C103.57 13.0933 103.837 13.7733 103.837 14.6C103.837 15.4267 103.57 16.1067 103.037 16.64C102.503 17.1733 101.797 17.44 100.917 17.44C100.063 17.44 99.3832 17.1733 98.8766 16.64ZM109.474 25.92C109.474 24.16 110.154 22.6933 111.514 21.52C112.874 20.3467 114.594 19.76 116.674 19.76C118.754 19.76 120.554 20 122.074 20.48C122.448 20.5867 122.634 20.8267 122.634 21.2V25.44C122.634 25.84 122.434 26.04 122.034 26.04H119.714C119.288 26.04 119.114 25.84 119.194 25.44L119.394 23.4C118.594 22.9733 117.714 22.76 116.754 22.76C114.621 22.76 113.554 23.5067 113.554 25C113.554 25.7733 113.901 26.3867 114.594 26.84C115.288 27.2933 116.128 27.6667 117.114 27.96C118.101 28.2267 119.088 28.5467 120.074 28.92C121.088 29.2667 121.941 29.88 122.634 30.76C123.328 31.6133 123.674 32.7067 123.674 34.04C123.674 36.0667 122.968 37.6533 121.554 38.8C120.141 39.92 118.154 40.48 115.594 40.48C113.808 40.48 111.928 40.2133 109.954 39.68C109.608 39.5733 109.434 39.32 109.434 38.92V34.68C109.434 34.28 109.634 34.08 110.034 34.08H112.354C112.754 34.08 112.941 34.28 112.914 34.68L112.794 36.76C113.514 37.2933 114.541 37.56 115.874 37.56C118.248 37.56 119.434 36.72 119.434 35.04C119.434 34.1867 119.088 33.52 118.394 33.04C117.728 32.5333 116.901 32.1467 115.914 31.88C114.954 31.6133 113.981 31.32 112.994 31C112.008 30.6533 111.168 30.0667 110.474 29.24C109.808 28.3867 109.474 27.28 109.474 25.92ZM132.46 23.48V33.56C132.46 34.8133 132.62 35.72 132.94 36.28C133.26 36.84 133.86 37.12 134.74 37.12C135.62 37.12 136.473 36.9333 137.3 36.56C137.593 36.4533 137.807 36.56 137.94 36.88L138.66 38.72C138.687 38.8 138.7 38.92 138.7 39.08C138.7 39.2133 138.567 39.36 138.3 39.52C137.02 40.16 135.5 40.48 133.74 40.48C131.367 40.48 129.807 39.8667 129.06 38.64C128.527 37.84 128.22 37.0667 128.14 36.32C128.033 35.3067 127.98 34.24 127.98 33.12V23.48H125.7C125.3 23.48 125.1 23.28 125.1 22.88V20.8C125.1 20.4 125.3 20.2 125.7 20.2H127.98V14.8C127.98 14.4 128.18 14.2 128.58 14.2H131.86C132.26 14.2 132.46 14.4 132.46 14.8V20.2H136.5C136.9 20.2 137.1 20.4 137.1 20.8V22.88C137.1 23.28 136.9 23.48 136.5 23.48H132.46ZM147.266 23.64C147.719 22.5733 148.452 21.6667 149.466 20.92C150.479 20.1467 151.586 19.76 152.786 19.76C153.986 19.76 154.906 19.8667 155.546 20.08C155.866 20.1867 156.026 20.4267 156.026 20.8V26.2C156.026 26.6 155.826 26.8 155.426 26.8H152.826C152.426 26.8 152.239 26.6 152.266 26.2L152.426 23.88C152.292 23.8533 152.066 23.84 151.746 23.84C150.519 23.84 149.506 24.3467 148.706 25.36C147.906 26.3467 147.506 27.68 147.506 29.36V36.84H151.906C152.306 36.84 152.506 37.04 152.506 37.44V39.4C152.506 39.8 152.306 40 151.906 40H140.906C140.506 40 140.306 39.8 140.306 39.4V37.44C140.306 37.04 140.506 36.84 140.906 36.84H143.026V23.48H140.866C140.466 23.48 140.266 23.28 140.266 22.88V20.8C140.266 20.4 140.466 20.2 140.866 20.2H146.146C146.519 20.2 146.746 20.4 146.826 20.8L147.266 23.64ZM158.713 30.4C158.713 28.4 159.019 26.6667 159.633 25.2C160.246 23.7333 161.046 22.6267 162.033 21.88C163.926 20.4667 165.979 19.76 168.193 19.76C169.819 19.76 171.193 20.0133 172.313 20.52C173.433 21.0267 174.299 21.6133 174.913 22.28C175.553 22.9467 176.086 23.9067 176.513 25.16C176.966 26.4133 177.193 27.88 177.193 29.56C177.193 33.1333 176.286 35.8533 174.473 37.72C172.686 39.56 170.393 40.48 167.592 40.48C164.793 40.48 162.606 39.64 161.033 37.96C159.486 36.2533 158.713 33.7333 158.713 30.4ZM167.913 37.2C169.513 37.2 170.673 36.6133 171.393 35.44C172.139 34.24 172.513 32.4667 172.513 30.12C172.513 27.7733 172.139 26.0133 171.393 24.84C170.673 23.64 169.486 23.04 167.833 23.04C164.766 23.04 163.233 25.2 163.233 29.52C163.233 34.64 164.793 37.2 167.913 37.2ZM164.873 16.8H162.513C162.246 16.8 162.113 16.7467 162.113 16.64C162.113 16.5333 162.153 16.4133 162.233 16.28L165.593 10.88C165.833 10.5333 166.139 10.36 166.513 10.36H169.553C169.926 10.36 170.233 10.5333 170.473 10.88L173.833 16.28C173.913 16.4133 173.953 16.5333 173.953 16.64C173.953 16.7467 173.819 16.8 173.553 16.8H171.193C170.793 16.8 170.486 16.64 170.273 16.32L167.953 12.92L165.793 16.28C165.553 16.6267 165.246 16.8 164.873 16.8ZM72.348 79C71.942 79 71.739 78.884 71.739 78.652C71.739 78.565 71.7535 78.4635 71.7825 78.3475L72.1305 76.1725C72.1885 75.9115 72.261 75.7375 72.348 75.6505C72.464 75.5635 72.667 75.5345 72.957 75.5635H75.1755L79.0905 52.987H76.872C76.582 53.016 76.3935 52.987 76.3065 52.9C76.2485 52.813 76.2485 52.639 76.3065 52.378L76.698 50.116C76.756 49.681 77.0315 49.449 77.5245 49.42C83.0345 49.275 86.123 49.2025 86.79 49.2025C90.067 49.2025 92.561 49.826 94.272 51.073C95.983 52.291 96.8385 54.0165 96.8385 56.2495C96.8385 60.2805 94.5185 63.253 89.8785 65.167L93.141 74.8675C93.489 75.8825 94.011 76.39 94.707 76.39C95.084 76.39 95.519 76.2885 96.012 76.0855C96.505 75.8825 96.8385 75.984 97.0125 76.39L97.3605 77.1295C97.4185 77.2455 97.4475 77.405 97.4475 77.608C97.4475 77.782 97.317 77.9415 97.056 78.0865C95.693 79.0435 94.3155 79.522 92.9235 79.522C91.5315 79.522 90.531 79.2465 89.922 78.6955C89.313 78.1155 88.791 77.2165 88.356 75.9985L85.0065 66.298H84.1365C83.2085 66.298 82.3965 66.2545 81.7005 66.1675L80.0475 75.5635H82.7445C83.0345 75.5345 83.2085 75.5635 83.2665 75.6505C83.3535 75.7375 83.368 75.9115 83.31 76.1725L82.962 78.3475C82.904 78.6085 82.817 78.7825 82.701 78.8695C82.614 78.9565 82.4255 79 82.1355 79H72.348ZM85.6155 52.813H84.0495L82.179 63.253C82.411 63.282 82.8605 63.2965 83.5275 63.2965C85.9345 63.2965 87.9065 62.7745 89.4435 61.7305C90.9805 60.6575 91.749 59.0625 91.749 56.9455C91.749 54.1905 89.7045 52.813 85.6155 52.813ZM116.85 76.999C114.53 78.681 111.876 79.522 108.889 79.522C105.902 79.522 103.713 78.768 102.321 77.26C100.929 75.723 100.233 73.6205 100.233 70.9525C100.233 67.4435 101.204 64.297 103.147 61.513C104.104 60.15 105.366 59.0625 106.932 58.2505C108.527 57.4095 110.354 56.989 112.413 56.989C114.501 56.989 116.125 57.5255 117.285 58.5985C118.445 59.6425 119.025 61.0345 119.025 62.7745C118.996 65.3845 117.923 67.284 115.806 68.473C113.689 69.662 111.122 70.2565 108.106 70.2565C107.41 70.2565 106.482 70.1985 105.322 70.0825C105.293 70.3145 105.279 70.6335 105.279 71.0395C105.279 72.4895 105.67 73.664 106.453 74.563C107.265 75.433 108.541 75.868 110.281 75.868C112.021 75.868 113.718 75.375 115.371 74.389C115.777 74.186 116.081 74.273 116.284 74.65L117.024 75.9985C117.256 76.3755 117.198 76.709 116.85 76.999ZM111.238 60.73C109.73 60.73 108.498 61.31 107.541 62.47C106.584 63.63 105.96 65.0945 105.67 66.8635C106.25 66.9795 106.801 67.0375 107.323 67.0375C109.15 67.0375 110.716 66.704 112.021 66.037C113.355 65.37 114.022 64.355 114.022 62.992C114.022 62.267 113.761 61.716 113.239 61.339C112.746 60.933 112.079 60.73 111.238 60.73ZM134.757 57.4675C135.163 57.4675 135.366 57.5835 135.366 57.8155C135.366 57.9025 135.351 58.004 135.322 58.12L134.931 60.4255C134.873 60.6865 134.786 60.8605 134.67 60.9475C134.583 61.0345 134.394 61.0635 134.104 61.0345H129.754L127.927 71.257C127.753 72.243 127.666 73.113 127.666 73.867C127.666 74.592 127.811 75.143 128.101 75.52C128.42 75.868 129 76.042 129.841 76.042C130.682 76.042 131.509 75.8825 132.321 75.5635C132.727 75.4185 133.017 75.549 133.191 75.955L133.582 77.434C133.727 77.869 133.597 78.1735 133.191 78.3475C131.451 79.1305 129.624 79.522 127.71 79.522C125.825 79.522 124.491 79.1305 123.708 78.3475C122.954 77.5645 122.577 76.477 122.577 75.085C122.577 74.273 122.722 73.084 123.012 71.518L124.926 61.0345H122.49C122.084 61.0635 121.881 60.962 121.881 60.73C121.881 60.643 121.895 60.5415 121.924 60.4255L122.272 58.12C122.33 57.859 122.403 57.685 122.49 57.598C122.606 57.511 122.809 57.4675 123.099 57.4675H125.535L126.535 51.595C126.593 51.334 126.666 51.16 126.753 51.073C126.869 50.986 127.072 50.9425 127.362 50.9425H130.842C131.132 50.9425 131.306 50.986 131.364 51.073C131.451 51.16 131.465 51.334 131.407 51.595L130.407 57.4675H134.757ZM137.945 79C137.539 79 137.336 78.884 137.336 78.652C137.336 78.565 137.351 78.4635 137.38 78.3475L140.381 60.991H138.511C138.221 61.02 138.032 60.991 137.945 60.904C137.887 60.817 137.887 60.643 137.945 60.382L138.337 58.12C138.395 57.685 138.67 57.4675 139.163 57.4675H144.688C144.978 57.4675 145.152 57.511 145.21 57.598C145.297 57.685 145.311 57.859 145.253 58.12L144.644 61.687C146.471 58.555 148.893 56.989 151.909 56.989C153.823 56.989 154.78 57.2645 154.78 57.8155C154.78 57.9025 154.765 58.004 154.736 58.12L153.736 63.862C153.678 64.297 153.402 64.5145 152.909 64.5145H150.43C150.14 64.5145 149.951 64.471 149.864 64.384C149.806 64.297 149.806 64.123 149.864 63.862L150.256 61.5565C149.85 61.4985 149.56 61.4695 149.386 61.4695C146.573 61.4695 144.818 63.4415 144.122 67.3855L142.208 78.3475C142.179 78.6085 142.107 78.7825 141.991 78.8695C141.875 78.9565 141.672 79 141.382 79H137.945ZM176.89 65.602C176.89 69.807 175.759 73.1855 173.497 75.7375C171.264 78.2605 168.161 79.522 164.188 79.522C161.578 79.522 159.548 78.7825 158.098 77.3035C156.677 75.8245 155.967 73.6785 155.967 70.8655C155.967 66.8055 157.04 63.485 159.186 60.904C161.332 58.294 164.348 56.989 168.234 56.989C172.352 56.989 175.034 58.6275 176.281 61.9045C176.687 62.9775 176.89 64.21 176.89 65.602ZM171.757 65.689C171.757 62.412 170.336 60.7735 167.494 60.7735C166.218 60.7735 165.116 61.107 164.188 61.774C163.289 62.441 162.622 63.3255 162.187 64.4275C161.404 66.3995 161.013 68.5455 161.013 70.8655C161.013 74.2295 162.318 75.9115 164.928 75.9115C166.204 75.9115 167.306 75.5635 168.234 74.8675C169.191 74.1715 169.901 73.258 170.365 72.127C171.293 70.01 171.757 67.864 171.757 65.689ZM165.493 53.77H162.709C162.448 53.77 162.318 53.7265 162.318 53.6395C162.318 53.5235 162.39 53.3785 162.535 53.2045L167.19 47.332C167.538 46.955 167.915 46.7665 168.321 46.7665H171.627C172.033 46.7665 172.323 46.955 172.497 47.332L175.15 53.2045C175.208 53.3205 175.237 53.4075 175.237 53.4655C175.237 53.6685 175.063 53.77 174.715 53.77H172.366C171.931 53.77 171.627 53.596 171.453 53.248L169.582 49.5505L166.624 53.2045C166.276 53.5815 165.899 53.77 165.493 53.77Z" fill="white"/>
</svg>
