<svg width="60" height="60" viewBox="0 0 60 60" fill="none" xmlns="http://www.w3.org/2000/svg">
<path d="M35.4776 17C32.0901 17 29.3343 19.7558 29.3343 23.1433C29.3343 26.5307 32.0901 29.2865 35.4776 29.2865C37.3334 29.2865 39.0697 28.4605 40.2429 27.0203C40.6763 26.4884 41.0069 25.8958 41.2403 25.2588C42.1808 25.325 42.8694 25.6215 43.2894 26.1423C44.0573 27.0939 43.7523 28.549 43.7492 28.5616C43.7399 28.6039 43.7345 28.6481 43.7345 28.6916V41.3744C43.7345 41.7027 44.0008 41.969 44.3291 41.969C44.6577 41.969 44.9236 41.7027 44.9236 41.3744V28.7503C44.9933 28.377 45.2375 26.674 44.2218 25.4048C43.6227 24.6569 42.7217 24.2218 41.5443 24.097C41.5931 23.7822 41.6197 23.464 41.6197 23.1433C41.6208 19.7558 38.8654 17 35.4776 17ZM40.2472 24.4889C40.0633 25.1413 39.7518 25.7407 39.3214 26.2694C38.375 27.4313 36.9742 28.0972 35.478 28.0972C32.7462 28.0972 30.5237 25.875 30.5237 23.143C30.5237 20.4109 32.7462 18.1887 35.478 18.1887C38.2105 18.1887 40.4322 20.4109 40.4322 23.143C40.4318 23.6002 40.3703 24.0533 40.2472 24.4889Z" fill="#D68F0D"/>
<path d="M27.617 40.206C27.999 40.0435 28.3543 39.8166 28.6697 39.5356C28.9852 39.8166 29.3412 40.0435 29.7229 40.206C31.6013 41.5956 33.4293 42.2992 35.1575 42.2992C39.9364 42.2992 42.1984 37.0725 42.2924 36.8504C42.3846 36.6309 42.3381 36.3781 42.1724 36.2063C42.0075 36.0352 41.7567 35.9791 41.5342 36.0631C40.2972 36.5326 39.1755 36.7691 38.1993 36.7691C36.1871 36.7691 35.2364 35.757 34.8394 35.125C34.7666 34.9534 34.6807 34.7828 34.5797 34.6141C33.8663 33.43 32.6185 32.7226 31.2417 32.7226C30.2837 32.7226 29.3757 33.0701 28.6697 33.6929C27.9637 33.0702 27.0566 32.7226 26.0978 32.7226C24.721 32.7226 23.4732 33.4301 22.7595 34.6141C22.6589 34.7828 22.5718 34.9534 22.5002 35.125C22.1031 35.7582 21.1521 36.7691 19.1398 36.7691C18.1641 36.7691 17.042 36.5315 15.805 36.0631C15.5832 35.9795 15.3316 36.0352 15.1664 36.2063C15.0015 36.3782 14.9543 36.6309 15.0468 36.8504C15.1408 37.0733 17.4039 42.2992 22.1817 42.2992C23.911 42.2992 25.7393 41.5956 27.617 40.206Z" fill="#EDEDED"/>
<circle cx="30" cy="30" r="23" stroke="#D9D9D9" stroke-width="2"/>
</svg>
